<?xml version="1.0" encoding="utf-8"?>
<!-- Generator: Adobe Illustrator 23.0.0, SVG Export Plug-In . SVG Version: 6.00 Build 0)  -->
<svg version="1.1" id="Calque_1" xmlns="http://www.w3.org/2000/svg" xmlns:xlink="http://www.w3.org/1999/xlink" x="0px" y="0px"
	 viewBox="0 0 40 30" style="enable-background:new 0 0 40 30;" xml:space="preserve">
<style type="text/css">
	.st0{fill:#FFFFFF;}
	.st1{fill:#011C2E;}
	.st2{fill:#2A4A68;}
</style>
<g>
	<g>
		<path class="st0" d="M2.9,10.4C2.9,10.4,2.9,10.4,2.9,10.4c0.3-0.3,0.5-0.7,0.4-1.1c0-0.1,0-0.1-0.1-0.2c0,0,0.1,0,0.1,0
			c1.3,0.2,4.1,1.8,6.5,3.3c-0.5,0-0.8,0-0.9,0.1c0,0-0.1,0-0.1,0c-0.3,0-0.5,0.1-0.5,0.3c0,0.1,0,0.2,0.2,0.4
			c0.3,0.2,2.3,1.6,2.9,1.7c0.1,0,0.3,0,1.4-0.1c0,0,0,0,0,0c0.1,0,0.3,0,0.4-0.1c0.5,0.3,0.8,0.5,0.8,0.5c0.1,0.1,0.2,0,0-0.1
			c0,0-0.3-0.2-0.7-0.5c0.2,0,0.4,0,0.5-0.1c0.3,0.2,0.6,0.4,0.9,0.6l0,0l0,0c0.3-0.2,0.8-0.4,1-0.5c0,0,0.1,0,0.1,0
			c0.2,0,0.4,0,0.4,0.1c0,0.1-0.1,0.3-0.3,0.5c-0.5,0.1-1,0.2-1,0.2c0,0.2,0.5,0.5,0.8,0.6c0,0,0,0.1,0,0.1c0,0,0,0.1-0.1,0.1
			c-1.1-0.1-3.4-0.5-5.5-1.6C7.5,13.3,3.4,10.8,2.9,10.4z"/>
		<path class="st0" d="M2.8,10.3C2.5,10,2,9.7,2,9.1C2.2,9,2.4,8.8,2.7,8.8c0.1,0,0.2,0,0.2-0.1C3,8.8,3.2,9.1,3.2,9.3
			C3.2,9.7,3.1,10,2.8,10.3z"/>
		<path class="st0" d="M10.1,12.4c0.2,0,0.5,0,0.8,0c-1.8-1.3-3.6-2.5-4.2-3C5.7,8.8,4.9,8.5,4,8.5c0.1,0,0.2,0,0.3,0.1
			c0,0.1,0,0.2,0,0.4C4,8.9,3.6,8.8,3.1,8.7c0,0.1,0.1,0.1,0.1,0.2c0,0,0,0,0,0c0.1,0,0.1,0,0.2,0c0.8,0.1,2,0.7,3.4,1.5l0-0.4
			l0.3,0.2c0,0.1,0,0.2,0,0.3c0.1,0,0.1,0.1,0.2,0.1c0-0.1,0-0.2,0-0.3l0.2,0.1c0,0.1,0,0.2,0,0.3c0.1,0,0.1,0.1,0.2,0.1
			c0-0.1,0-0.2,0-0.3l0.2,0.1c0,0.1,0,0.2,0,0.3c0.1,0,0.1,0.1,0.2,0.1c0-0.1,0-0.2,0-0.3L8.2,11c0,0.1,0,0.2,0,0.3
			c0.1,0,0.1,0.1,0.2,0.1c0-0.1,0-0.2,0-0.3l0.2,0.1c0,0.1,0,0.2,0,0.3C9.1,11.8,9.6,12.1,10.1,12.4z M5,9.2c0,0-0.2-0.1-0.5-0.2
			c0-0.1,0-0.3,0-0.4c0.1,0.1,0.3,0.1,0.4,0.2L5,9.2z"/>
		<path class="st0" d="M1.4,15.2c0.1,0,0.2-0.1,0.3-0.1c0.1,0.1,0.1,0.1,0.2,0.2c0,0,0,0,0,0c-0.4,0.1-0.8,0.3-1.1,0.4
			C1,15.5,1.2,15.3,1.4,15.2z"/>
		<path class="st0" d="M6.1,13.2c0,0,0.1,0,0.1,0c0.2,0.1,0.5,0.3,0.7,0.4c0,0-0.1,0-0.1,0c-0.4,0.1-0.9,0.3-1.6,0.5
			c-0.1-0.2-0.2-0.3-0.4-0.5C5.4,13.5,5.8,13.3,6.1,13.2z"/>
		<path class="st0" d="M3.2,14.3c0.1,0.1,0.1,0.1,0.2,0.2c0.1,0,0.1,0.1,0.2,0.1c-0.2,0.1-0.3,0.1-0.5,0.2c-0.1-0.1-0.2-0.2-0.3-0.3
			C3,14.4,3.1,14.4,3.2,14.3z"/>
		<path class="st0" d="M3.4,14.3C3.3,14.3,3.3,14.2,3.4,14.3c-0.1-0.1-0.1-0.1-0.1-0.1c-0.2-0.2-0.4-0.5-0.4-0.6c0,0,0.1,0,0.1,0
			c0.1,0,0.3-0.1,0.4-0.2c0.1-0.1,0.2-0.2,0.2-0.4c0-0.1,0-0.1,0-0.2c0.2,0.1,0.6,0.3,0.9,0.6c0.1,0.1,0.1,0.1,0.2,0.2
			c0,0,0,0,0.1,0.1c0,0,0,0,0.1,0.1C4.9,13.9,5,14,5.1,14.2c0.2,0.4,0.3,0.7,0.1,0.8c-0.1,0.1-0.1,0.1-0.2,0.1h0
			c-0.3,0-0.7-0.2-1.2-0.5c-0.1-0.1-0.2-0.1-0.2-0.2C3.5,14.4,3.4,14.3,3.4,14.3z"/>
		<path class="st0" d="M1.8,14.9C1.8,14.9,1.8,14.9,1.8,14.9c-0.1-0.2-0.2-0.2-0.2-0.3c0,0,0,0,0,0c0.1,0,0.2-0.1,0.3-0.2
			c0.1-0.1,0.1-0.2,0.1-0.4c0.1,0.1,0.3,0.2,0.5,0.4c0,0,0,0,0,0c0,0,0,0,0,0c0,0,0,0,0.1,0.1c0.1,0.1,0.2,0.2,0.3,0.3
			c0.2,0.3,0.2,0.5,0.1,0.6c0,0-0.1,0.1-0.1,0.1h0c-0.2,0-0.5-0.1-0.8-0.4c0,0-0.1,0-0.1-0.1C2,15.1,1.9,15,1.8,14.9
			C1.8,14.9,1.8,14.9,1.8,14.9z"/>
		<path class="st0" d="M12.5,13c-0.2,0-0.3,0-0.5,0c0,0-0.1,0-0.1,0c0,0-0.1,0-0.1,0c-0.2,0-0.5,0-0.7,0.1c-0.1,0-0.1,0-0.2,0
			c-0.7,0.1-1.4,0.1-1.9,0.2c-0.2-0.2-0.4-0.3-0.5-0.4c-0.1,0-0.1-0.1-0.1-0.2c0-0.1,0.1-0.2,0.4-0.2c0,0,0,0,0.1,0
			c0.4,0,0.7,0,1.1-0.1c0.1,0,0.1,0,0.2,0c0.2,0,0.5,0,0.8,0c0,0,0.1,0,0.1,0c0,0,0.1,0,0.1,0c0.2,0,0.5,0,0.8,0
			C12.2,12.6,12.3,12.8,12.5,13z"/>
		<path class="st0" d="M23.9,12c0.2,0.1,0.4,0.2,0.6,0.4c-1.1,0-3.3,0.1-5.7,0.2c-0.1-0.2-0.1-0.3-0.3-0.5C21.4,12,23.7,12,23.9,12z
			"/>
		<path class="st0" d="M14.7,12.3c0.5,0,1.1-0.1,1.6-0.1c0.1,0.1,0.3,0.3,0.5,0.5c0,0,0,0,0,0c-0.6,0-1.2,0.1-1.8,0.1
			C14.9,12.7,14.8,12.5,14.7,12.3z"/>
		<path class="st0" d="M14.9,13.8c-0.1,0.1-0.2,0.1-0.3,0.1c-0.4,0.1-1.1-0.3-1.8-0.9c0,0,0,0,0,0c-0.2-0.2-0.4-0.4-0.6-0.6
			c0,0,0,0-0.1-0.1c0,0,0,0-0.1-0.1c-0.1-0.1-0.2-0.3-0.2-0.4c0.1,0,0.1,0,0.2,0c0.2,0,0.4-0.1,0.5-0.3c0.1-0.1,0.2-0.3,0.2-0.5
			c0-0.1,0-0.2,0-0.3c0.3,0.1,0.7,0.3,1.2,0.8c0.1,0.2,0.3,0.3,0.4,0.4c0,0,0,0,0.1,0.1c0,0,0,0,0.1,0.1c0.1,0.2,0.3,0.4,0.3,0.5
			C15.1,13.3,15.1,13.6,14.9,13.8z"/>
		<path class="st0" d="M16.4,12.2C16.4,12.1,16.4,12.1,16.4,12.2c-0.2-0.2-0.2-0.3-0.3-0.4c0,0,0.1,0,0.1,0c0.1,0,0.3-0.1,0.4-0.2
			c0.1-0.1,0.2-0.3,0.2-0.4c0-0.1,0-0.1,0-0.2c0.2,0.1,0.6,0.3,0.9,0.6c0.2,0.2,0.3,0.3,0.4,0.5c0,0,0,0,0.1,0.1c0,0,0,0,0.1,0.1
			c0.1,0.2,0.2,0.4,0.3,0.5c0.1,0.2,0.1,0.4,0,0.5c-0.1,0.1-0.1,0.1-0.2,0.1h0c-0.3,0-0.8-0.2-1.3-0.6c-0.1,0-0.1-0.1-0.2-0.1
			C16.7,12.5,16.6,12.3,16.4,12.2C16.5,12.2,16.4,12.2,16.4,12.2z"/>
	</g>
	<g>
		<path class="st1" d="M0.7,15.9c0,0.1,0.1,0.2,0.3,0.3c0.4,0,4.3-0.3,6.8-0.6c1.1-0.1,1.6-0.2,1.9-0.3c2.5,1.2,4,1.4,5.1,1.4
			c0.2,0,0.3,0,0.4,0c0,0,0,0,0,0c0.4-0.1,0.7-0.2,0.7-0.4c0-0.1,0-0.1,0-0.2c0.5-0.1,2.8-0.6,2.8-0.7c0-0.1-0.4-0.3-0.6-0.3
			c-0.1,0-1.1,0.1-1.9,0.2c0.1-0.2,0.2-0.5,0.2-0.5c0,0,0-0.1-0.1-0.1c-0.1-0.1-0.3-0.1-0.5-0.1c-0.1,0-0.1,0-0.2,0
			c-0.2,0.1-0.7,0.3-1,0.5c-0.2-0.1-0.4-0.3-0.7-0.5c3.7-0.5,9.9-1.5,10.3-1.6c0.2,0,0.3-0.2,0.3-0.3c0-0.3-0.4-0.7-0.8-0.9
			c-0.3-0.1-2.7,0-5.5,0.1c-0.1-0.2-0.3-0.4-0.5-0.6c-0.6-0.7-1.2-0.7-1.2-0.8l0,0l0,0c0,0,0,0,0,0c0,0-0.1,0-0.1,0
			c-0.1,0-0.3,0.1-0.4,0.2c-0.2,0.2-0.2,0.4-0.2,0.6l0,0l0,0l0,0c0,0,0.1,0.2,0.3,0.5c-0.5,0-1.1,0.1-1.6,0.1
			c-0.1-0.2-0.3-0.4-0.5-0.5c-0.8-0.8-1.5-0.9-1.5-0.9l0,0l0,0c0,0-0.1,0-0.1,0c-0.2,0-0.4,0.1-0.5,0.3c-0.1,0.1-0.2,0.3-0.2,0.5
			c0,0.1,0,0.2,0,0.2l0,0l0,0c0,0,0.1,0.2,0.3,0.5c-0.3,0-0.6,0-0.9,0C9.2,11,7.4,9.7,6.7,9.2c-1-0.7-2-1-3-0.9
			c-0.3,0-0.6,0.1-1,0.2C2.2,8.7,1.9,9,1.8,9.2c-0.2,0.4,0,0.8,0.2,1c0.2,0.4,1.9,1.6,4,2.9c-0.3,0.1-0.7,0.2-1.1,0.4
			c-0.1-0.1-0.1-0.2-0.2-0.2c-0.6-0.7-1.2-0.7-1.2-0.7l0,0l0,0c0,0,0,0,0,0c0,0-0.1,0-0.1,0c-0.1,0-0.3,0.1-0.4,0.2
			c-0.2,0.2-0.2,0.4-0.2,0.6c0,0,0,0,0,0l0,0l0,0c0,0,0.1,0.4,0.5,0.8c-0.1,0.1-0.2,0.1-0.3,0.2c0,0,0,0,0,0
			c-0.4-0.4-0.8-0.5-0.8-0.5l0,0l0,0c0,0,0,0,0,0c0,0,0,0-0.1,0c-0.1,0-0.2,0.1-0.3,0.2c-0.1,0.1-0.2,0.3-0.1,0.4c0,0,0,0,0,0l0,0
			l0,0c0,0,0.1,0.2,0.2,0.4C1.5,15,1.4,15,1.4,15C1,15.2,0.7,15.6,0.7,15.9z M15.8,16.3c-1.1-0.1-3.4-0.5-5.5-1.6
			c-2.9-1.5-6.9-3.9-7.4-4.4c0,0,0,0,0,0c0.3-0.3,0.5-0.7,0.4-1.1c0-0.1,0-0.1-0.1-0.2c0,0,0.1,0,0.1,0c1.3,0.2,4.1,1.8,6.5,3.3
			c-0.5,0-0.8,0-0.9,0.1c0,0-0.1,0-0.1,0c-0.3,0-0.5,0.1-0.5,0.3c0,0.1,0,0.2,0.2,0.4c0.3,0.2,2.3,1.6,2.9,1.7c0.1,0,0.3,0,1.4-0.1
			c0,0,0,0,0,0c0.1,0,0.3,0,0.4-0.1c0.5,0.3,0.8,0.5,0.8,0.5c0.1,0.1,0.2,0,0-0.1c0,0-0.3-0.2-0.7-0.5c0.2,0,0.4,0,0.5-0.1
			c0.3,0.2,0.6,0.4,0.9,0.6l0,0l0,0c0.3-0.2,0.8-0.4,1-0.5c0,0,0.1,0,0.1,0c0.2,0,0.4,0,0.4,0.1c0,0.1-0.1,0.3-0.3,0.5
			c-0.5,0.1-1,0.2-1,0.2c0,0.2,0.5,0.5,0.8,0.6C15.9,16.2,15.9,16.2,15.8,16.3C15.9,16.3,15.9,16.3,15.8,16.3z M23.9,12
			c0.2,0.1,0.4,0.2,0.6,0.4c-1.1,0-3.3,0.1-5.7,0.2c-0.1-0.2-0.1-0.3-0.3-0.5C21.4,12,23.7,12,23.9,12z M18.3,12.1
			C18.3,12.1,18.3,12.1,18.3,12.1c0.2,0.3,0.3,0.4,0.3,0.6c0.1,0.2,0.1,0.4,0,0.5c-0.1,0.1-2-1.6-1.9-1.7c0.1-0.1,0.2-0.3,0.2-0.4
			c0-0.1,0-0.1,0-0.2c0.2,0.1,0.6,0.3,0.9,0.6C18,11.7,18.1,11.9,18.3,12.1C18.2,12,18.3,12,18.3,12.1z M14.5,12.3
			C14.5,12.3,14.5,12.3,14.5,12.3c0.2,0.3,0.3,0.4,0.4,0.6c0.2,0.4,0.2,0.7,0.1,0.9c-0.1,0.1-2.5-2-2.3-2.1c0.1-0.1,0.2-0.3,0.2-0.5
			c0-0.1,0-0.2,0-0.3c0.3,0.1,0.7,0.3,1.2,0.8C14.2,11.9,14.3,12,14.5,12.3C14.4,12.2,14.4,12.2,14.5,12.3z M6.6,9.4
			c0.7,0.5,2.5,1.7,4.2,3c-0.3,0-0.5,0-0.8,0c-0.5-0.3-1-0.6-1.5-0.9c0-0.1,0-0.2,0-0.3l-0.2-0.1c0,0.1,0,0.2,0,0.3
			c-0.1,0-0.1-0.1-0.2-0.1c0-0.1,0-0.2,0-0.3L8,10.8c0,0.1,0,0.2,0,0.3c-0.1,0-0.1-0.1-0.2-0.1c0-0.1,0-0.2,0-0.3l-0.2-0.1
			c0,0.1,0,0.2,0,0.3c-0.1,0-0.1-0.1-0.2-0.1c0-0.1,0-0.2,0-0.3l-0.2-0.1c0,0.1,0,0.2,0,0.3c-0.1,0-0.1-0.1-0.2-0.1
			c0-0.1,0-0.2,0-0.3l-0.3-0.2l0,0.4C5.4,9.7,4.2,9.1,3.4,8.9c-0.1,0-0.1,0-0.2,0c0,0,0,0,0,0c0-0.1-0.1-0.2-0.1-0.2
			C3.6,8.8,4,8.9,4.3,9c0-0.1,0-0.3,0-0.4C4.2,8.6,4.1,8.5,4,8.5C4.9,8.5,5.7,8.8,6.6,9.4z M2.9,8.7C3,8.8,3.2,9.1,3.2,9.3
			c0,0.4-0.1,0.7-0.4,1C2.5,10,2,9.7,2,9.1C2.2,9,2.4,8.8,2.7,8.8C2.8,8.7,2.8,8.7,2.9,8.7z M4.7,13.6C4.7,13.7,4.7,13.7,4.7,13.6
			C4.9,13.9,5,14,5.1,14.2c0.2,0.4,0.3,0.7,0.1,0.8c-0.1,0.1-2-1.6-1.9-1.7c0.1-0.1,0.2-0.2,0.2-0.4c0-0.1,0-0.1,0-0.2
			c0.2,0.1,0.6,0.3,0.9,0.6C4.5,13.5,4.6,13.5,4.7,13.6C4.7,13.6,4.7,13.6,4.7,13.6z M2.7,14.5C2.7,14.5,2.7,14.5,2.7,14.5
			c0.2,0.2,0.3,0.3,0.3,0.4c0.2,0.3,0.2,0.5,0.1,0.6c0,0-1.3-1-1.2-1.1c0.1-0.1,0.1-0.2,0.1-0.4C2.2,14.1,2.4,14.2,2.7,14.5
			C2.6,14.5,2.6,14.5,2.7,14.5C2.6,14.5,2.7,14.5,2.7,14.5z M2.9,14.5c0.1,0,0.2-0.1,0.3-0.2c0.1,0.1,0.1,0.1,0.2,0.2
			c0.1,0,0.1,0.1,0.2,0.1c-0.2,0.1-0.3,0.1-0.5,0.2C3.1,14.7,3,14.6,2.9,14.5z M4.9,13.6c0.5-0.2,0.9-0.3,1.2-0.4c0,0,0.1,0,0.1,0
			c0.2,0.1,0.5,0.3,0.7,0.4c0,0-0.1,0-0.1,0c-0.4,0.1-0.9,0.3-1.6,0.5C5.2,14,5.1,13.8,4.9,13.6z M11.1,12.5c0,0,0.1,0,0.1,0
			c0.2,0,0.5,0,0.8,0c0.1,0.2,0.3,0.4,0.5,0.6c-0.2,0-0.3,0-0.5,0c0,0-0.1,0-0.1,0c0,0-0.1,0-0.1,0c-0.2,0-0.5,0-0.7,0.1
			c-0.1,0-0.1,0-0.2,0c-0.7,0.1-1.4,0.1-1.9,0.2c-0.2-0.2-0.4-0.3-0.5-0.4c-0.1,0-0.1-0.1-0.1-0.2c0-0.1,0.1-0.2,0.4-0.2
			c0,0,0,0,0.1,0c0.4,0,0.7,0,1.1-0.1c0.1,0,0.1,0,0.2,0c0.2,0,0.5,0,0.8,0C11.1,12.5,11.1,12.5,11.1,12.5z M14.7,12.3
			c0.5,0,1.1-0.1,1.6-0.1c0.1,0.1,0.3,0.3,0.5,0.5c0,0,0,0,0,0c-0.6,0-1.2,0.1-1.8,0.1C14.9,12.7,14.8,12.5,14.7,12.3z M0.9,15.7
			c0.1-0.2,0.3-0.4,0.5-0.5c0.1,0,0.2-0.1,0.3-0.1c0.1,0.1,0.1,0.1,0.2,0.2c0,0,0,0,0,0C1.6,15.4,1.2,15.5,0.9,15.7z"/>
		<path class="st2" d="M4.5,8.7c0.1,0.1,0.3,0.1,0.4,0.2L5,9.2c0,0-0.2-0.1-0.5-0.2C4.5,8.9,4.5,8.8,4.5,8.7z"/>
	</g>
</g>
<path class="st1" d="M34.6,16.1c1-3-2.1-7.2-6.6-10.3c7,3.4,11.3,8.4,10,12.2c-1.5,4.5-10.4,5.5-19.8,2.3c-3.2-1.1-6-2.5-8.3-4.1
	c1.3,0.6,2.7,1.2,4.2,1.7C23.5,21.2,33,20.6,34.6,16.1z"/>
</svg>
