<?xml version="1.0" encoding="utf-8"?>
<!-- Generator: Adobe Illustrator 23.0.0, SVG Export Plug-In . SVG Version: 6.00 Build 0)  -->
<svg version="1.1" id="Calque_1" xmlns="http://www.w3.org/2000/svg" xmlns:xlink="http://www.w3.org/1999/xlink" x="0px" y="0px"
	 viewBox="0 0 100 100" style="enable-background:new 0 0 100 100;" xml:space="preserve">
<style type="text/css">
	.st0{opacity:0.6;}
	.st1{opacity:1.000000e-02;fill:#9C9B9B;}
	.st2{opacity:2.000000e-02;fill:#9C9B9B;}
	.st3{opacity:3.000000e-02;fill:#9C9B9B;}
	.st4{fill:#E63B20;}
	.st5{fill:#E4CDA7;}
	.st6{fill:#E3AB29;}
	.st7{fill:#FABB2C;}
	.st8{fill:#3C3C3B;}
	.st9{fill:#9C9B9B;}
	.st10{fill:#ECECEC;}
</style>
<g class="st0">
	<path class="st1" d="M44.8,95.9C77,94.7,100,93.3,100,92.3c0-1.2-37.9-1.2-84.7,0.1c-4.9,0.1-9.8,0.3-14.5,0.4
		c2.6,0.4,5.2,0.9,7.7,1.4C20.4,95.6,32.5,96,44.8,95.9z"/>
	<path class="st2" d="M42,95.9c31.8-1.2,54.6-2.6,54.6-3.5c0-1.2-36.4-1.1-81.3,0.1c-4.8,0.1-9.4,0.3-13.9,0.4
		c2.4,0.4,4.8,0.9,7.2,1.4C19.5,95.5,30.7,95.9,42,95.9z"/>
	<path class="st3" d="M39.5,95.9c31.2-1.1,53.7-2.5,53.6-3.4c0-1.1-34.9-1.1-77.8,0.1c-4.6,0.1-9.1,0.3-13.5,0.4
		c2.3,0.4,4.5,0.8,6.7,1.3C18.7,95.4,29.1,95.9,39.5,95.9z"/>
	<path class="st3" d="M38,95.9c30.6-1.1,52.8-2.5,52.7-3.4c0-1.1-33.8-1.1-75.4,0.1c-4.5,0.1-8.9,0.3-13.1,0.4
		c2.1,0.4,4.3,0.8,6.3,1.2C18.2,95.4,28,95.8,38,95.9z"/>
	<path class="st3" d="M35.9,95.9c29.6-1.1,51.2-2.4,51.2-3.2c0-1-32.2-1-71.7,0.1C11,92.9,6.8,93,2.7,93.1c2,0.3,3.9,0.8,5.8,1.2
		C17.5,95.3,26.6,95.8,35.9,95.9z"/>
	<path class="st3" d="M34.5,95.9c28.9-1,50.1-2.3,50.1-3.2c0-1-31.1-1-69.3,0.1C11.1,92.9,7,93,3,93.2c1.9,0.3,3.7,0.7,5.5,1.1
		C17.1,95.3,25.8,95.7,34.5,95.9z"/>
	<path class="st3" d="M34.2,95.9c27.2-1,46.8-2.2,46.8-3c0-1-30.2-1-67.5,0.1c-3.4,0.1-6.8,0.2-10.1,0.3c1.7,0.3,3.4,0.7,5.1,1
		C17,95.2,25.6,95.7,34.2,95.9z"/>
	<path class="st3" d="M31.9,95.8c25.6-0.9,44.2-2.1,44.2-2.8c0-0.9-28.1-0.9-62.6,0.1c-3.2,0.1-6.4,0.2-9.5,0.3
		c1.5,0.3,3,0.6,4.5,0.9C16.2,95.2,24,95.6,31.9,95.8z"/>
	<path class="st3" d="M30.3,95.8c24.4-0.9,42.2-2,42.1-2.7c0-0.9-26.4-0.8-59,0.1c-3.1,0.1-6.1,0.2-9,0.3c1.4,0.3,2.7,0.5,4,0.8
		C15.7,95.1,23,95.5,30.3,95.8z"/>
	<path class="st3" d="M29.3,95.7C52.8,94.9,70,93.9,70,93.2c0-0.8-25.3-0.8-56.5,0.1c-3,0.1-5.9,0.2-8.7,0.3C6,93.7,7.3,94,8.5,94.3
		C15.4,95.1,22.3,95.5,29.3,95.7z"/>
	<path class="st3" d="M28.3,95.7c22.7-0.8,39.3-1.8,39.3-2.5c0-0.8-24.2-0.8-54.1,0.1c-2.9,0.1-5.7,0.2-8.4,0.3
		c1.2,0.2,2.3,0.5,3.5,0.7C15,95,21.6,95.5,28.3,95.7z"/>
	<path class="st3" d="M27.3,95.7c21.7-0.8,37.6-1.7,37.6-2.4c0-0.8-23-0.7-51.4,0.1c-2.8,0.1-5.5,0.2-8.1,0.2
		c1.1,0.2,2.1,0.4,3.2,0.7C14.7,95,21,95.4,27.3,95.7z"/>
	<path class="st3" d="M25.5,95.6C45.4,94.9,60.1,94,60,93.4c0-0.7-20.9-0.7-46.5,0.1c-2.6,0.1-5.1,0.1-7.6,0.2
		c0.9,0.2,1.7,0.4,2.6,0.5C14.1,94.9,19.8,95.3,25.5,95.6z"/>
	<path class="st3" d="M26.7,95.6c22.7-0.8,39.7-1.8,39.7-2.4c0-0.7-22.9-0.7-51,0.1c-3.5,0.1-6.8,0.2-10.1,0.3
		c1.1,0.2,2.2,0.5,3.3,0.7C14.5,95,20.6,95.4,26.7,95.6z"/>
	<path class="st3" d="M26.1,95.6c22.1-0.7,38.7-1.7,38.7-2.3c0-0.7-22.2-0.7-49.4,0.1c-3.4,0.1-6.7,0.2-9.9,0.3
		c1,0.2,2.1,0.4,3.1,0.6C14.3,94.9,20.2,95.4,26.1,95.6z"/>
	<path class="st3" d="M25.3,95.6c21.2-0.7,37.1-1.6,37.1-2.2c0-0.7-21.1-0.7-47,0.1c-3.3,0.1-6.5,0.2-9.6,0.3c1,0.2,1.9,0.4,2.8,0.6
		C14.1,94.9,19.6,95.3,25.3,95.6z"/>
	<path class="st3" d="M24.7,95.6c20.6-0.7,36.1-1.6,36-2.2c0-0.7-20.4-0.6-45.4,0.1c-3.2,0.1-6.4,0.2-9.4,0.3
		c0.9,0.2,1.8,0.4,2.6,0.5C13.9,94.9,19.3,95.3,24.7,95.6z"/>
	<path class="st3" d="M24.7,95.5C44,94.9,58.4,94,58.4,93.5c0-0.6-19.8-0.6-44.3,0.1c-2.7,0.1-5.4,0.2-8,0.2
		c0.8,0.2,1.6,0.3,2.4,0.5C13.8,94.9,19.2,95.3,24.7,95.5z"/>
	<path class="st3" d="M23.6,95.5c18.1-0.6,31.6-1.4,31.6-1.9c0-0.6-18.4-0.6-41.1,0c-2.6,0.1-5.2,0.1-7.7,0.2c0.7,0.1,1.4,0.3,2,0.4
		C13.5,94.8,18.6,95.2,23.6,95.5z"/>
	<path class="st3" d="M22.8,95.5c17.2-0.6,30-1.3,30-1.8c0-0.6-17.3-0.5-38.7,0c-2.5,0.1-5,0.1-7.4,0.2C7.4,94,8,94.1,8.5,94.3
		C13.3,94.8,18,95.2,22.8,95.5z"/>
	<path class="st3" d="M22.4,95.4c16.5-0.6,28.9-1.3,28.8-1.8c0-0.5-16.6-0.5-37.1,0c-2.5,0.1-4.9,0.1-7.2,0.2
		C7.5,94,8,94.2,8.5,94.3C13.1,94.8,17.7,95.2,22.4,95.4z"/>
	<path class="st3" d="M21.9,95.4c15.9-0.5,27.7-1.2,27.7-1.7c0-0.5-15.9-0.5-35.4,0c-2.4,0.1-4.8,0.1-7,0.2c0.5,0.1,0.9,0.2,1.4,0.3
		C12.9,94.8,17.4,95.1,21.9,95.4z"/>
	<path class="st3" d="M21.4,95.4c15.1-0.5,26.5-1.2,26.5-1.6c0-0.5-15.1-0.5-33.7,0c-2.3,0.1-4.6,0.1-6.8,0.2
		c0.4,0.1,0.8,0.2,1.2,0.3C12.8,94.8,17.1,95.1,21.4,95.4z"/>
	<path class="st3" d="M20.5,95.3c13.8-0.5,24.2-1.1,24.2-1.5c0-0.4-13.7-0.4-30.5,0C11.9,94,9.8,94,7.7,94.1
		c0.3,0.1,0.6,0.1,0.9,0.2C12.5,94.7,16.5,95.1,20.5,95.3z"/>
	<path class="st3" d="M21.4,95.4C37.7,94.8,50,94.1,50,93.7c0-0.5-15.5-0.5-34.7,0c-2.8,0.1-5.6,0.2-8.2,0.3
		c0.5,0.1,0.9,0.2,1.4,0.3C12.8,94.8,17.1,95.1,21.4,95.4z"/>
	<path class="st3" d="M21.1,95.4c15.8-0.5,27.9-1.2,27.8-1.6c0-0.5-15-0.5-33.6,0c-2.8,0.1-5.5,0.2-8.1,0.3c0.4,0.1,0.9,0.2,1.3,0.3
		C12.7,94.7,16.9,95.1,21.1,95.4z"/>
	<path class="st3" d="M20.6,95.3c15.1-0.5,26.7-1.2,26.7-1.6c0-0.5-14.3-0.5-31.9,0c-2.7,0.1-5.4,0.2-7.9,0.2
		c0.4,0.1,0.8,0.2,1.1,0.2C12.5,94.7,16.6,95.1,20.6,95.3z"/>
	<path class="st3" d="M20.3,95.3c14.7-0.5,25.9-1.1,25.9-1.5c0-0.5-13.8-0.4-30.9,0c-2.7,0.1-5.3,0.2-7.8,0.2c0.3,0.1,0.7,0.1,1,0.2
		C12.4,94.7,16.3,95.1,20.3,95.3z"/>
	<path class="st3" d="M20.2,95.3c13.9-0.5,24.4-1.1,24.3-1.5c0-0.4-13.5-0.4-30,0c-2.4,0.1-4.6,0.1-6.8,0.2c0.3,0.1,0.6,0.1,0.8,0.2
		C12.4,94.7,16.3,95.1,20.2,95.3z"/>
	<path class="st3" d="M19.6,95.3c13-0.4,22.8-1,22.8-1.4c0-0.4-12.5-0.4-27.9,0c-2.3,0.1-4.5,0.1-6.6,0.2c0.2,0,0.4,0.1,0.6,0.1
		C12.2,94.7,15.9,95,19.6,95.3z"/>
	<path class="st3" d="M19.2,95.2c12.3-0.4,21.6-0.9,21.6-1.3c0-0.4-11.8-0.4-26.2,0c-2.2,0.1-4.4,0.1-6.4,0.2c0.1,0,0.3,0.1,0.4,0.1
		C12.1,94.7,15.6,95,19.2,95.2z"/>
	<path class="st3" d="M18.9,95.2c11.8-0.4,20.8-0.9,20.8-1.2c0-0.4-11.3-0.4-25.2,0c-2.2,0.1-4.3,0.1-6.3,0.2c0.1,0,0.2,0,0.3,0.1
		C12,94.7,15.4,95,18.9,95.2z"/>
	<path class="st3" d="M18.6,95.2c11.3-0.4,20-0.9,20-1.2c0-0.4-10.8-0.3-24.1,0c-2.1,0.1-4.2,0.1-6.2,0.2c0.1,0,0.1,0,0.2,0
		C11.9,94.7,15.3,95,18.6,95.2z"/>
	<path class="st3" d="M18.3,95.2c10.8-0.3,19.1-0.8,19.1-1.1c0-0.3-10.3-0.3-22.9,0c-2.1,0.1-4.1,0.1-6,0.2c0,0,0,0,0,0
		C11.8,94.6,15.1,94.9,18.3,95.2z"/>
	<path class="st3" d="M17.8,95.1c9.9-0.3,17.5-0.8,17.5-1c0-0.3-9.3-0.3-20.7,0c-2,0.1-3.9,0.1-5.7,0.2
		C11.8,94.6,14.8,94.9,17.8,95.1z"/>
	<path class="st3" d="M18.1,95.2c11.3-0.3,20-0.8,20-1.1c0-0.3-10.2-0.3-22.7,0c-2.4,0.1-4.7,0.1-6.9,0.2c0,0,0.1,0,0.1,0
		C11.7,94.6,14.9,94.9,18.1,95.2z"/>
	<path class="st3" d="M17.9,95.1c10.9-0.3,19.4-0.8,19.4-1.1c0-0.3-9.9-0.3-22,0c-2.4,0.1-4.7,0.1-6.8,0.2
		C11.7,94.6,14.8,94.9,17.9,95.1z"/>
	<path class="st3" d="M17.7,95.1c10.5-0.3,18.7-0.8,18.7-1.1c0-0.3-9.4-0.3-20.9,0c-2.3,0.1-4.5,0.1-6.6,0.2
		C11.7,94.6,14.7,94.9,17.7,95.1z"/>
	<path class="st3" d="M17.5,95.1c10.2-0.3,18.1-0.8,18.1-1c0-0.3-9.1-0.3-20.2,0c-2.3,0.1-4.4,0.1-6.5,0.2
		C11.7,94.6,14.6,94.9,17.5,95.1z"/>
	<path class="st3" d="M17.4,95.1c9.6-0.3,17.1-0.7,17.1-1c0-0.3-8.8-0.3-19.7,0c-2,0.1-4,0.1-5.8,0.2C11.8,94.6,14.6,94.9,17.4,95.1
		z"/>
	<path class="st3" d="M17.1,95.1c9-0.3,16-0.7,16-0.9c0-0.3-8.2-0.3-18.3,0c-1.9,0.1-3.8,0.1-5.5,0.2C11.9,94.6,14.5,94.9,17.1,95.1
		z"/>
	<path class="st3" d="M16.8,95.1c8.6-0.3,15.2-0.6,15.2-0.9c0-0.3-7.7-0.2-17.2,0c-1.9,0.1-3.6,0.1-5.3,0.2
		C11.9,94.6,14.4,94.9,16.8,95.1z"/>
	<path class="st3" d="M16.7,95c8.3-0.3,14.7-0.6,14.7-0.8c0-0.2-7.4-0.2-16.5,0c-1.8,0-3.5,0.1-5.2,0.2C12,94.6,14.3,94.9,16.7,95z"
		/>
	<path class="st3" d="M16.5,95c7.9-0.2,14.1-0.6,14.1-0.8c0-0.2-7.1-0.2-15.8,0c-1.8,0-3.5,0.1-5,0.2C12,94.6,14.3,94.9,16.5,95z"/>
	<path class="st3" d="M16.3,95c7.6-0.2,13.5-0.6,13.5-0.8c0-0.2-6.7-0.2-15,0c-1.7,0-3.3,0.1-4.9,0.2C12.1,94.7,14.2,94.8,16.3,95z"
		/>
	<path class="st3" d="M16,95c7-0.2,12.5-0.5,12.5-0.7c0-0.2-6.1-0.2-13.6,0c-1.6,0-3.2,0.1-4.6,0.1C12.1,94.7,14,94.8,16,95z"/>
</g>
<g>
	<path class="st4" d="M82.5,33.1l6.5-7c0.8-0.9,0.3-2.7-1.2-4.1L71.7,7c-1.5-1.4-3.4-1.8-4.2-0.9l-6.5,7L82.5,33.1z"/>
	<g>
		<g>
			<path class="st5" d="M30.1,88C26.4,66.2,8.6,67.9,8.6,67.9l-0.6,3.5l0,0l-0.2,0.9l0,0l-0.9,5.1l0,0l-0.2,1l0,0l-0.4,2.4l0,0
				l0,0.1c0,0,0,0,0,0L6,81.7L3.9,93.1l11.3-2.2l0,0l1.3-0.3c0,0,0,0-0.1,0l0.3,0l0,0l0.7-0.1l0,0l0.9-0.2l0,0l7.7-1.5l0,0l0.9-0.2
				l0,0L30.1,88z"/>
		</g>
	</g>
	<g>
		<g>
			<path class="st6" d="M72.8,35.4L26.9,83.3c-0.1,0.1-0.1,0.3-0.1,0.4c0,0,0,0.3,0,0.4c0,0,0,0,0,0c0,0,0,0,0,0c0,0.1,0,0.1,0,0.2
				c0,0,0,0.1,0,0.1c0,0,0,0,0,0h0c0,0,0,0,0,0c0,0.1,0,0.2,0,0.2c0,0,0,0.2,0.1,0.2c0,0,0,0,0,0c0,0,0.1,0.3,0.1,0.3
				c0,0,0,0.1,0,0.1c0,0.1,0,0.1,0.1,0.2c0,0,0,0.1,0,0.1c0,0.1,0.4,0.6,0.4,0.7c0,0,0,0,0,0c0,0.1,0.1,0.1,0.1,0.2
				c0,0,0.1,0.2,0.2,0.2c0,0,0,0,0,0.1c0.1,0.1,0.5,0.5,0.5,0.6c0,0,0,0,0,0c0.1,0.1,0.4,0.4,0.4,0.4c0,0,0,0,0,0
				c0.1,0.1,0.2,0.2,0.2,0.2c0,0,0.1,0.1,0.1,0.1c0,0,0,0,0,0c0,0,0,0,0.1,0.1c0,0,0,0,0,0c0,0,0,0,0.1,0c0,0,0,0,0,0c0,0,0,0,0,0
				c0,0,0,0,0,0c0,0,0,0,0,0c0,0,0,0,0,0c0,0,0,0,0,0c0,0,0,0,0,0c0,0,0,0,0,0c0,0,0,0,0,0l47.2-49.3L72.8,35.4z"/>
		</g>
	</g>
	<g>
		<g>
			<path class="st7" d="M55.4,19.1L8.1,68.5c0,0,0,0,0,0c0,0,0,0,0,0c0,0,0.8,1,0.8,1c0,0,0.1,0.1,0.1,0.1c0.1,0.1,0.2,0.2,0.2,0.2
				l0,0c0,0,0.1,0,0.1,0.1c0,0,0.3,0.2,0.3,0.3c0,0,0.2,0.2,0.2,0.2c0,0,0.2,0.1,0.2,0.2c0,0,0.2,0.1,0.2,0.2c0,0,0.1,0,0.1,0.1
				c0,0,0.1,0.1,0.1,0.1c0,0,0.2,0.1,0.3,0.2c0,0,0.2,0.1,0.3,0.1c0,0,0.1,0,0.1,0.1c0.1,0,0.3,0.1,0.3,0.1c0.1,0,0.1,0.1,0.2,0.1
				c0,0,0.1,0,0.1,0c0,0,0,0,0,0c0.2,0.1,0.3,0.1,0.5,0.1c0,0,0,0,0.1,0c0,0,0,0,0,0c0,0,0,0,0,0c0,0,0,0,0,0c0.1,0,0.2,0,0.4,0.1
				c0,0,0,0,0,0c0,0,0,0,0,0c0,0,0.1,0,0.1,0c0.1,0,0.3,0,0.4,0c0,0,0,0,0.1,0c0.1,0,0.3,0,0.4,0c0,0,0.1,0,0.1,0
				c0.2,0,0.3,0,0.5-0.1l45.9-47.9L55.4,19.1z"/>
		</g>
	</g>
	<g>
		<g>
			<path class="st8" d="M16.7,90.6L16.7,90.6l-1.3-1.2l-0.4-0.3l-0.6-0.6l-1.9-1.8l-0.4-0.4l-1.9-1.8l-0.4-0.4l-1.5-1.4L8,82.5
				l-0.6-0.6L7,81.6l-0.8-0.7c0,0,0,0,0,0c-0.1,0.5-0.1,0.7-0.2,1.2l0,0L3.7,92.6c0,0.2,0.1,0.4,0.2,0.5l0,0c0,0,0,0,0,0
				c0.1,0.1,0.3,0.2,0.5,0.2l10.7-2.4l0.3-0.1c0.4-0.1,0.8-0.1,1-0.2C16.6,90.6,16.7,90.6,16.7,90.6"/>
		</g>
	</g>
	<g>
		<g>
			<path class="st6" d="M60.2,23.7L14.3,71.6c0,0,0,0,0,0c0,0,0,0,0,0c0,0,0,0,0,0.1c0,0,0,0,0,0.1c0,0,0,0,0,0.1c0,0,0,0.1,0.1,0.1
				c0,0,0,0,0,0.1c0,0,0,0.1,0.1,0.1c0,0.1,0.1,0.2,0.1,0.3c0,0,0,0,0,0.1c0,0,0,0.1,0.1,0.1c0,0,0,0,0,0.1c0,0,0.1,0.1,0.1,0.1
				c0,0.1,0.1,0.1,0.1,0.2c0,0.1,0.1,0.1,0.1,0.2c0,0,0,0.1,0.1,0.1c0,0,0,0,0,0c0.1,0.1,0.1,0.2,0.2,0.3c0,0,0,0,0,0.1c0,0,0,0,0,0
				c0.1,0.1,0.1,0.2,0.2,0.3c0,0.1,0.1,0.1,0.1,0.2c0.1,0.1,0.2,0.3,0.3,0.4c0,0,0,0,0,0c0.1,0.1,0.2,0.3,0.3,0.4
				c0,0,0.1,0.1,0.1,0.1c0.1,0.1,0.2,0.3,0.3,0.4c0,0.1,0.1,0.1,0.1,0.2c0.1,0.1,0.2,0.3,0.3,0.4c0,0,0.1,0.1,0.1,0.1
				c0,0,0.1,0.1,0.1,0.1c0,0.1,0.1,0.1,0.1,0.2c0,0,0.2,0.3,0.3,0.3c0,0,0,0,0,0c0,0,0,0,0,0c0.1,0.1,0.1,0.2,0.2,0.3
				c0.1,0.1,0.3,0.3,0.4,0.4c0,0,0,0.1,0.1,0.1c0,0,0,0,0,0c0,0,0.1,0.1,0.1,0.1c0,0,0.1,0.1,0.1,0.1c0.2,0.2,0.4,0.4,0.5,0.6
				c0,0,0.1,0.1,0.1,0.1c0.1,0.1,0.3,0.3,0.4,0.4c0,0,0,0,0.1,0.1l0,0c0.1,0.1,0.2,0.2,0.3,0.3c0,0,0,0,0,0c0,0,0,0,0,0
				c0.1,0.1,0.2,0.2,0.3,0.2l0,0c0,0,0.1,0,0.1,0.1l46.9-49L60.2,23.7z"/>
		</g>
	</g>
	<g>
		<g>
			<path class="st7" d="M67.7,30.6l-47,48.9l0,0c0.1,0.1,0.2,0.2,0.3,0.2c0.1,0.1,0.3,0.2,0.4,0.3c0.3,0.2,0.6,0.5,0.9,0.7
				c0.1,0.1,0.3,0.2,0.4,0.3c0.2,0.1,0.3,0.2,0.5,0.3c0,0,0,0,0,0c0,0,0,0,0.1,0c0,0,0,0,0.1,0c0.1,0.1,0.3,0.2,0.4,0.3
				c0.6,0.3,1.2,0.7,1.8,0.9c0.2,0.1,0.3,0.1,0.5,0.2c0.3,0.1,0.6,0.3,1,0.4l45.9-47.9L67.7,30.6z"/>
		</g>
	</g>
	<rect x="64.6" y="11" transform="matrix(0.6815 -0.7318 0.7318 0.6815 3.3057 58.935)" class="st9" width="9.5" height="29.4"/>
	<g>
		<rect x="66.7" y="13" transform="matrix(0.6816 -0.7318 0.7318 0.6816 1.2131 58.1941)" class="st10" width="1.5" height="29.4"/>
		
			<rect x="68.6" y="10.9" transform="matrix(0.6815 -0.7318 0.7318 0.6815 3.3448 58.9484)" class="st10" width="1.5" height="29.4"/>
		
			<rect x="70.6" y="8.9" transform="matrix(0.6816 -0.7318 0.7318 0.6816 5.4755 59.6995)" class="st10" width="1.5" height="29.4"/>
	</g>
</g>
</svg>
