<?xml version="1.0" encoding="utf-8"?>
<!-- Generator: Adobe Illustrator 23.0.0, SVG Export Plug-In . SVG Version: 6.00 Build 0)  -->
<svg version="1.1" id="Calque_1" xmlns="http://www.w3.org/2000/svg" xmlns:xlink="http://www.w3.org/1999/xlink" x="0px" y="0px"
	 viewBox="0 0 6.8 28.4" style="enable-background:new 0 0 6.8 28.4;" xml:space="preserve">
<style type="text/css">
	.st0{fill:#D87A09;}
	.st1{fill:#E4CDA7;}
	.st2{fill:#232322;}
	.st3{fill:#494848;}
	.st4{fill:#AAA9A9;}
	.st5{fill:#011C2E;}
	.st6{fill:#FFFFFF;}
	.st7{font-family:'Consolas';}
	.st8{font-size:2.7714px;}
</style>
<path class="st0" d="M6.3,3.2V0.6C6.3,0.3,6,0,5.5,0H1.1C0.7,0,0.4,0.3,0.4,0.6v2.6L6.3,3.2z"/>
<g>
	<g>
		<path class="st1" d="M6.3,22.6c-3.5-3.6-5.9,0-5.9,0l0.4,0.8l0,0l0.1,0.2l0,0l0.6,1.2l0,0V25l0,0l0.3,0.5l0,0l0,0l0,0l0.1,0.2
			l1.2,2.6l1.4-2.5l0,0l0.2-0.3l0,0v-0.1l0,0l0.1-0.1l0,0l0.1-0.2l0,0l0.9-1.7l0,0l0.1-0.2l0,0L6.3,22.6z"/>
	</g>
</g>
<g>
	<g>
		<path class="st2" d="M4.7,25.6L4.7,25.6H4.3H4.2H4H3.5H3.4H2.9H2.8H2.4H2.3H2.1H2H1.8l0,0c0.1,0.1,0.1,0.2,0.1,0.3l0,0L3,28.4
			l0.1,0.1l0,0l0,0c0,0,0.1,0,0.1-0.1L4.4,26v-0.1C4.5,25.8,4.6,25.7,4.7,25.6C4.6,25.6,4.7,25.6,4.7,25.6"/>
	</g>
</g>
<polygon class="st3" points="0.4,5.4 0.4,2.8 6.3,2.9 6.3,5.4 "/>
<g>
	<polygon class="st4" points="0.4,5.1 0.4,4.7 6.3,4.7 6.3,5.1 	"/>
	<polygon class="st4" points="0.4,4.3 0.4,3.9 6.3,3.9 6.3,4.3 	"/>
	<polygon class="st4" points="0.4,3.5 0.4,3.1 6.3,3.2 6.3,3.6 	"/>
</g>
<rect x="0.4" y="5.4" class="st5" width="5.9" height="17.2"/>
<text transform="matrix(6.123235e-17 1 -1 6.123235e-17 2.4302 5.5293)" class="st6 st7 st8">Ecrivez moi</text>
</svg>
