<?xml version="1.0" encoding="utf-8"?>
<!-- Generator: Adobe Illustrator 23.0.0, SVG Export Plug-In . SVG Version: 6.00 Build 0)  -->
<svg version="1.1" id="Calque_1" xmlns="http://www.w3.org/2000/svg" xmlns:xlink="http://www.w3.org/1999/xlink" x="0px" y="0px"
	 viewBox="0 0 6.8 28.4" style="enable-background:new 0 0 6.8 28.4;" xml:space="preserve">
<style type="text/css">
	.st0{fill:#D87A09;}
	.st1{fill:#E4CDA7;}
	.st2{fill:#232322;}
	.st3{fill:#494848;}
	.st4{fill:#AAA9A9;}
	.st5{fill:#011C2E;}
	.st6{enable-background:new    ;}
	.st7{fill:#FFFFFF;}
</style>
<path class="st0" d="M6.3,3.2V0.6C6.3,0.3,6,0,5.5,0H1.1C0.7,0,0.4,0.3,0.4,0.6v2.6L6.3,3.2z"/>
<g>
	<g>
		<path class="st1" d="M6.3,22.6c-3.5-3.6-5.9,0-5.9,0l0.4,0.8l0,0l0.1,0.2l0,0l0.6,1.2l0,0V25l0,0l0.3,0.5l0,0l0,0l0,0l0.1,0.2
			l1.2,2.6l1.4-2.5l0,0l0.2-0.3l0,0v-0.1l0,0l0.1-0.1l0,0l0.1-0.2l0,0l0.9-1.7l0,0l0.1-0.2l0,0L6.3,22.6z"/>
	</g>
</g>
<g>
	<g>
		<path class="st2" d="M4.7,25.6L4.7,25.6H4.3H4.2H4H3.5H3.4H2.9H2.8H2.4H2.3H2.1H2H1.8l0,0c0.1,0.1,0.1,0.2,0.1,0.3l0,0L3,28.4
			l0.1,0.1l0,0l0,0c0,0,0.1,0,0.1-0.1L4.4,26v-0.1C4.5,25.8,4.6,25.7,4.7,25.6C4.6,25.6,4.7,25.6,4.7,25.6"/>
	</g>
</g>
<polygon class="st3" points="0.4,5.4 0.4,2.8 6.3,2.9 6.3,5.4 "/>
<g>
	<polygon class="st4" points="0.4,5.1 0.4,4.7 6.3,4.7 6.3,5.1 	"/>
	<polygon class="st4" points="0.4,4.3 0.4,3.9 6.3,3.9 6.3,4.3 	"/>
	<polygon class="st4" points="0.4,3.5 0.4,3.1 6.3,3.2 6.3,3.6 	"/>
</g>
<rect x="0.4" y="5.4" class="st5" width="5.9" height="17.2"/>
<g class="st6">
	<path class="st7" d="M4.7,6.2C4.7,6.2,4.7,6.1,4.7,6.2C4.7,6.1,4.7,6.1,4.7,6.2c0-0.1,0-0.1,0-0.2s0,0,0,0c0,0,0,0,0,0c0,0,0,0,0,0
		c0,0,0,0,0.1,0c0,0,0,0,0,0.1s0,0.1,0,0.1s0,0,0,0.1v0v0c0,0,0,0.1,0,0.2c0,0.1,0,0.1,0,0.2c0,0.1,0,0.2,0,0.2c0,0.1,0,0.2,0,0.2
		c0,0.1,0,0.1,0,0.2c0,0,0,0.1,0,0.1c0,0,0,0,0,0.1c0,0,0,0,0,0.1c0,0,0,0,0,0.1s0,0-0.1,0c0,0-0.1,0-0.1,0c0,0,0,0,0,0s0,0,0,0
		c0,0,0,0,0-0.1c0-0.1,0-0.2,0-0.2c0-0.1,0-0.2,0-0.2s0-0.2,0-0.2c0-0.1,0-0.2,0-0.2c0,0-0.1,0-0.2,0c-0.1,0-0.1,0-0.2,0
		s-0.2,0-0.2,0c-0.1,0-0.1,0-0.2,0.1c0,0.1,0.1,0.1,0.1,0.2c0,0.1,0,0.1,0,0.2c0,0,0,0.1,0,0.1c0,0,0,0.1,0,0.1c0,0,0,0.1-0.1,0.1
		c0,0-0.1,0-0.1,0c0,0-0.1,0-0.1,0s0-0.1,0-0.1c0,0,0,0,0,0s0,0,0-0.1s0,0,0-0.1s0,0,0,0c0,0,0,0,0,0s0,0,0,0s0,0,0,0s0,0,0,0
		c0,0,0-0.1,0-0.1c0,0,0-0.1,0-0.1c0,0,0-0.1-0.1-0.1c0,0-0.1,0-0.1,0c0,0,0,0-0.1,0s-0.1,0-0.1,0c-0.1,0-0.1,0-0.2,0
		c-0.1,0-0.1,0-0.1,0c0,0-0.1,0-0.1,0.1c0,0,0,0.1,0,0.1c0,0,0,0,0,0c0,0,0,0,0,0C2.8,7,2.9,7,2.9,7.1C3,7.2,3,7.2,3.1,7.3
		c0,0.1,0.1,0.1,0.1,0.2c0,0.1,0,0.2,0,0.2H3.1c0,0,0,0-0.1-0.1c0,0-0.1-0.1-0.1-0.1c0-0.1-0.1-0.1-0.1-0.2S2.7,7.2,2.6,7.1
		C2.6,7,2.5,7,2.5,6.9s0-0.1,0-0.2c0-0.1,0-0.1,0.1-0.2c0.1-0.1,0.1-0.1,0.2-0.1c0.1,0,0.2-0.1,0.3-0.1c0.1,0,0.3-0.1,0.4-0.1
		c0.1,0,0.3,0,0.4,0c0.1,0,0.3,0,0.4,0c0.1,0,0.2,0,0.3,0S4.7,6.2,4.7,6.2z"/>
	<path class="st7" d="M3.3,7.9c0.1,0,0.2,0,0.3,0.1C3.7,8,3.7,8,3.8,8.1C3.9,8.1,3.9,8.2,4,8.3s0.1,0.2,0.1,0.2c0,0,0,0.1,0,0.1
		c0,0,0,0.1-0.1,0.1c0,0-0.1,0.1-0.1,0.1c0,0-0.1,0-0.1,0c0,0,0-0.1,0-0.1s0-0.1,0-0.1c0,0,0-0.1,0-0.1c0,0,0-0.1,0-0.1
		c0-0.1,0-0.1-0.1-0.2c0,0-0.1-0.1-0.1-0.1c-0.1,0-0.1,0-0.2-0.1s-0.1,0-0.2,0c0,0,0,0-0.1,0c0,0-0.1,0-0.1,0c0,0-0.1,0-0.1,0
		c0,0,0,0-0.1,0c0,0-0.1,0-0.1,0.1c0,0,0,0-0.1,0.1c0,0,0,0,0,0.1c0,0,0,0.1,0,0.1c0,0,0,0.1,0,0.1s0,0.1,0.1,0.1c0,0,0,0.1,0.1,0.1
		c0,0,0,0.1,0.1,0.1S3,8.9,3,9c0,0,0,0.1,0,0.1c-0.1,0-0.2,0-0.2,0C2.7,9,2.7,9,2.6,8.9C2.6,8.9,2.5,8.8,2.5,8.7s0-0.2,0-0.3
		c0-0.1,0-0.2,0.1-0.2C2.6,8.1,2.7,8.1,2.8,8C2.9,8,3,7.9,3.1,7.9C3.2,7.9,3.2,7.9,3.3,7.9z"/>
	<path class="st7" d="M3.7,9.3C3.7,9.3,3.7,9.3,3.7,9.3c0.1,0,0.1,0,0.1,0s0,0,0,0c0,0,0,0,0,0.1c0,0,0,0,0,0.1c0,0-0.1,0-0.1,0.1
		c0,0-0.1,0-0.1,0.1s-0.1,0-0.1,0.1c0,0-0.1,0-0.1,0s0,0,0,0c0.1,0,0.1,0.1,0.2,0.1c0.1,0,0.2,0.1,0.2,0.1s0.1,0.1,0.2,0.2
		c0,0.1,0.1,0.1,0.1,0.2c0,0,0,0.1,0,0.1c0,0,0,0.1-0.1,0.1c0,0-0.1,0.1-0.1,0.1c0,0-0.1,0-0.1,0c0,0-0.1,0-0.1,0c0,0,0-0.1,0-0.1v0
		l0.1-0.1c0,0,0,0,0,0c0,0,0,0,0,0s0,0,0,0c0-0.1,0-0.1-0.1-0.2c0,0-0.1-0.1-0.1-0.1c-0.1,0-0.1,0-0.2,0S3.1,10,3,10
		c0,0-0.1,0-0.1,0c0,0-0.1,0-0.1,0c0,0-0.1,0-0.1,0c0,0-0.1,0-0.1,0c-0.1,0-0.1,0-0.1-0.1c0,0,0-0.1,0.1-0.1
		c0.1-0.1,0.1-0.1,0.2-0.2C2.8,9.6,2.9,9.5,3,9.5s0.2-0.1,0.3-0.1s0.2-0.1,0.2-0.1C3.6,9.3,3.6,9.3,3.7,9.3z"/>
	<path class="st7" d="M3.5,10.8C3.5,10.8,3.6,10.8,3.5,10.8c0.1,0,0.1,0,0.1,0c0,0,0.1,0,0.1,0c0,0,0,0,0.1,0c0,0,0.1,0,0.1,0.1
		s0,0.1,0,0.1c-0.1,0-0.2,0-0.3,0s-0.2,0.1-0.3,0.1c-0.1,0-0.2,0.1-0.3,0.1c-0.1,0-0.2,0-0.3,0c-0.1,0-0.1,0-0.1-0.1
		c0-0.1,0-0.1,0.1-0.1c0,0,0.1-0.1,0.2-0.1c0.1,0,0.1,0,0.2-0.1s0.2,0,0.2,0c0.1,0,0.2,0,0.2,0C3.4,10.8,3.5,10.8,3.5,10.8z
		 M4.6,10.9C4.6,10.9,4.6,11,4.6,10.9C4.5,11,4.5,11,4.4,11s0,0-0.1-0.1c0,0,0-0.1,0-0.2c0.1,0,0.1,0,0.1,0
		C4.6,10.8,4.6,10.8,4.6,10.9z"/>
	<path class="st7" d="M4,11.4C4,11.4,4,11.4,4,11.4c0.1,0.1,0,0.1,0,0.1c0,0-0.1,0.1-0.2,0.1c-0.1,0-0.1,0.1-0.2,0.1
		c-0.1,0-0.2,0.1-0.2,0.1c-0.1,0-0.2,0.1-0.2,0.1C3.1,12,3,12.1,3,12.1c0,0.1-0.1,0.1-0.1,0.2l1.2,0.2c0,0,0.1,0,0.1,0
		c0,0,0,0.1,0,0.1c0,0.1,0,0.1-0.1,0.1c0,0-0.1,0-0.2,0c-0.1,0-0.2,0-0.3,0c-0.1,0-0.2,0-0.3-0.1s-0.2-0.1-0.3-0.1s-0.2-0.1-0.2-0.1
		s-0.1-0.1-0.1-0.1c0-0.1,0-0.2,0.1-0.2c0.1-0.1,0.1-0.1,0.2-0.2c0.1-0.1,0.2-0.1,0.3-0.2c0.1-0.1,0.2-0.1,0.3-0.1
		c0.1,0,0.2-0.1,0.3-0.1C3.8,11.4,3.9,11.4,4,11.4z"/>
	<path class="st7" d="M3.3,12.9c0.1,0,0.2,0,0.3,0c0.1,0,0.2,0.1,0.3,0.1S4,13.2,4,13.3c0.1,0.1,0.1,0.2,0.1,0.3c0,0.1,0,0.1,0,0.2
		c0,0.1-0.1,0.1-0.1,0.1c0,0-0.1,0.1-0.1,0.1c-0.1,0-0.1,0-0.2,0c-0.1,0-0.2,0-0.3-0.1c-0.1,0-0.2-0.1-0.2-0.2S3,13.6,3,13.5
		c0-0.1,0-0.2,0-0.3c-0.1,0-0.1,0-0.1,0.1c0,0-0.1,0.1-0.1,0.1c0,0,0,0.1,0,0.2c0,0.1,0,0.1,0,0.1c0,0,0,0.1,0,0.1c0,0,0,0.1,0,0.1
		c0,0,0,0.1,0,0.1c0,0,0,0.1,0,0.1c0,0,0,0,0,0.1c0,0,0,0,0,0c0,0,0,0,0,0s0,0-0.1,0c0,0-0.1,0-0.1,0c0,0,0-0.1-0.1-0.1
		c0,0,0-0.1,0-0.1c0,0,0-0.1,0-0.1c0,0,0-0.1,0-0.1c0,0,0-0.1,0-0.1c0-0.1,0-0.2,0.1-0.3c0-0.1,0.1-0.2,0.2-0.2S2.8,13,2.9,13
		C3,12.9,3.1,12.9,3.3,12.9z M3.4,13.2c-0.1,0-0.1,0-0.1,0c0,0,0,0.1,0,0.1c0,0,0,0.1,0,0.1c0,0,0,0.1,0.1,0.1s0.1,0.1,0.1,0.1
		c0,0,0.1,0,0.1,0c0,0,0.1,0,0.1,0c0,0,0.1,0,0.1,0c0,0,0,0,0.1-0.1c0,0,0-0.1,0-0.1c0-0.1,0-0.1,0-0.2c0,0-0.1-0.1-0.1-0.1
		c0,0-0.1-0.1-0.1-0.1S3.5,13.2,3.4,13.2z"/>
	<path class="st7" d="M3.9,15.5C3.9,15.5,3.9,15.5,3.9,15.5C3.9,15.5,3.9,15.5,3.9,15.5c0.1,0,0.1,0,0.1-0.1c0-0.1,0-0.1,0-0.2
		c0-0.1,0-0.2,0-0.3c0-0.1,0-0.2,0-0.3c0-0.1,0-0.1,0-0.2c0-0.1,0.1-0.1,0.1-0.1c0,0,0.1,0,0.1,0c0,0,0,0,0,0s0,0,0,0s0,0,0,0v0.1
		c0,0,0,0.1,0,0.1c0,0.1,0,0.1,0,0.2c0,0.1,0,0.1,0,0.2c0,0.1,0,0.1,0,0.2c0,0.1,0,0.1,0,0.2c0,0,0,0.1,0,0.1c0,0,0,0.1-0.1,0.1
		c0,0,0,0-0.1,0.1c0,0,0,0-0.1,0s0,0-0.1,0c-0.1,0-0.1,0-0.2,0c-0.1,0-0.1-0.1-0.2-0.1s-0.1-0.1-0.2-0.1c-0.1-0.1-0.1-0.1-0.2-0.2
		c-0.1,0-0.1-0.1-0.2-0.1c-0.1,0-0.1-0.1-0.2-0.1v0.7c0,0.1,0,0.1,0,0.1c0,0,0,0-0.1,0c0,0-0.1,0-0.1,0c0,0,0,0-0.1-0.1
		c0-0.1,0-0.2,0-0.3c0-0.1,0-0.2,0-0.3c0-0.1,0-0.2,0-0.3c0-0.1,0-0.2,0-0.3c0.1,0,0.3,0,0.4,0.1C3,14.9,3.1,15,3.2,15
		c0.1,0.1,0.2,0.1,0.3,0.2C3.7,15.3,3.8,15.4,3.9,15.5z"/>
	<path class="st7" d="M3.7,17.4c0,0,0.1,0,0.1,0s0,0.1,0,0.1c0,0,0,0,0,0c0,0,0,0,0,0c-0.1,0-0.1,0-0.2,0c-0.1,0-0.1,0-0.2,0
		c-0.1,0-0.1,0-0.2,0.1c-0.1,0-0.1,0.1-0.2,0.1c0,0,0.1,0.1,0.1,0.1c0,0,0.1,0,0.1,0c0,0,0.1,0,0.1,0s0.1,0,0.1,0
		c0,0,0.1,0.1,0.1,0.1s0,0.1,0,0.2c0,0.1,0,0.1,0,0.2c0,0-0.1,0.1-0.1,0.1c0,0-0.1,0.1-0.1,0.1c-0.1,0-0.1,0.1-0.1,0.1
		c0,0,0.1,0,0.1,0c0,0,0.1,0,0.1,0.1S3.5,19,3.5,19c0,0,0.1,0.1,0.1,0.1c0,0,0.1,0.1,0.1,0.1s0,0.1,0,0.1c0,0.1,0,0.1-0.1,0.2
		c0,0.1-0.1,0.1-0.2,0.1s-0.2,0.1-0.2,0.1s-0.2,0-0.3,0.1c-0.1,0-0.2,0-0.2,0s-0.1,0-0.1,0c0,0,0,0-0.1,0c0,0,0,0,0,0c0,0,0,0,0-0.1
		c0,0,0,0,0-0.1c0,0,0,0,0,0s0,0,0,0c0,0,0,0,0,0l0.9-0.2c0,0,0,0,0,0c0,0,0,0,0,0c0,0,0,0,0,0c0,0,0,0,0,0s0,0,0,0c0,0,0-0.1,0-0.1
		c0,0-0.1-0.1-0.1-0.1c0,0-0.1-0.1-0.2-0.1C3.1,19,3,19,2.9,19s-0.1,0-0.2-0.1c0,0-0.1,0-0.1,0c0,0,0,0,0,0c0,0,0,0,0,0
		c0-0.1,0-0.1,0.1-0.1c0,0,0.1-0.1,0.1-0.1c0.1,0,0.1,0,0.2,0c0.1,0,0.1,0,0.2,0c0.1,0,0.1,0,0.1-0.1c0,0,0.1-0.1,0.1-0.1
		c0,0,0,0-0.1-0.1s-0.1,0-0.2-0.1c-0.1,0-0.1,0-0.2,0s-0.1,0-0.2,0c-0.1,0-0.1,0-0.2,0c0,0-0.1,0-0.1,0c0,0,0,0,0,0s0,0,0,0s0,0,0,0
		c0,0,0,0,0,0c0-0.1,0-0.1,0.1-0.2c0,0,0.1-0.1,0.2-0.1c0.1,0,0.2-0.1,0.3-0.1c0.1,0,0.2-0.1,0.3-0.1c0.1,0,0.2,0,0.2-0.1
		C3.6,17.4,3.6,17.4,3.7,17.4z"/>
	<path class="st7" d="M3,20c0.1,0,0.2,0,0.3,0.1s0.2,0.1,0.3,0.2c0.1,0.1,0.1,0.2,0.2,0.3c0,0.1,0.1,0.2,0.1,0.3
		c0,0.1,0,0.1-0.1,0.2c0,0-0.1,0.1-0.2,0.1c-0.1,0-0.1,0.1-0.2,0.1c-0.1,0-0.1,0-0.2,0c-0.1,0-0.2,0-0.3-0.1
		c-0.1-0.1-0.2-0.1-0.3-0.2c-0.1-0.1-0.1-0.2-0.2-0.3s-0.1-0.2-0.1-0.3c0-0.1,0-0.2,0-0.2c0-0.1,0.1-0.1,0.1-0.2
		C2.7,20,2.8,20,2.8,20C2.9,20,3,20,3,20z M3,20.2c0,0-0.1,0-0.1,0s-0.1,0-0.1,0s0,0-0.1,0.1s0,0.1,0,0.1c0,0.1,0,0.1,0.1,0.2
		c0,0.1,0.1,0.1,0.1,0.2C3,20.9,3,21,3.1,21c0.1,0,0.1,0.1,0.2,0.1c0,0,0.1,0,0.1,0s0.1,0,0.1,0c0,0,0.1,0,0.1-0.1s0-0.1,0-0.1
		c0,0,0-0.1,0-0.1c0,0-0.1-0.1-0.1-0.1c0-0.1-0.1-0.1-0.1-0.1s-0.1-0.1-0.1-0.1s-0.1-0.1-0.1-0.1C3.1,20.2,3,20.2,3,20.2z"/>
	<path class="st7" d="M3.5,21.5C3.5,21.5,3.6,21.5,3.5,21.5c0.1,0,0.1,0,0.1,0c0,0,0.1,0,0.1,0c0,0,0,0,0.1,0c0,0,0.1,0,0.1,0.1
		s0,0.1,0,0.1c-0.1,0-0.2,0-0.3,0s-0.2,0.1-0.3,0.1c-0.1,0-0.2,0.1-0.3,0.1c-0.1,0-0.2,0-0.3,0c-0.1,0-0.1,0-0.1-0.1
		c0-0.1,0-0.1,0.1-0.1c0,0,0.1-0.1,0.2-0.1c0.1,0,0.1,0,0.2-0.1s0.2,0,0.2,0c0.1,0,0.2,0,0.2,0S3.5,21.5,3.5,21.5z M4.6,21.6
		C4.6,21.6,4.6,21.7,4.6,21.6c-0.1,0.1-0.1,0.1-0.2,0.1c0,0,0,0-0.1-0.1s0-0.1,0-0.2c0.1,0,0.1,0,0.1,0C4.6,21.5,4.6,21.5,4.6,21.6z
		"/>
</g>
</svg>
