<?xml version="1.0" encoding="utf-8"?>
<!-- Generator: Adobe Illustrator 23.0.0, SVG Export Plug-In . SVG Version: 6.00 Build 0)  -->
<svg version="1.1" id="Calque_1" xmlns="http://www.w3.org/2000/svg" xmlns:xlink="http://www.w3.org/1999/xlink" x="0px" y="0px"
	 viewBox="0 0 30 30" style="enable-background:new 0 0 30 30;" xml:space="preserve">
<style type="text/css">
	.st0{fill:#FFFFFF;}
</style>
<g>
	<path class="st0" d="M2,10.4c-0.5-0.1-1,0-1.4,0.4C0,11.4,0,12.4,0.6,13c0,0,0,0,0,0c0,0,0,0,0,0l2.9,2.9l4.6-4.6L2,10.4
		C2,10.4,2,10.4,2,10.4z"/>
	<path class="st0" d="M18.8,26.9C18.8,26.9,18.8,26.9,18.8,26.9l-0.9-5.8l-4.6,4.6l2.8,2.8c0,0,0,0,0,0c0,0.1,0.1,0.1,0.1,0.1
		c0.6,0.6,1.6,0.6,2.2,0C18.9,28.1,19,27.5,18.8,26.9z"/>
	<path class="st0" d="M13.6,16.9l-1.3-1.3c-0.2-0.2-0.5-0.3-0.8-0.3c-0.3,0-0.6,0.1-0.8,0.3L8.4,18L8,18.3c-0.2,0.2-0.3,0.5-0.3,0.8
		c0,0.3,0.1,0.6,0.3,0.8l1.3,1.3c0.2,0.2,0.5,0.3,0.8,0.3c0.3,0,0.6-0.1,0.8-0.3l2.7-2.7c0.2-0.2,0.3-0.5,0.3-0.8
		C13.9,17.4,13.8,17.1,13.6,16.9z"/>
	<path class="st0" d="M25,12.8L25,12.8l3.3-9.9c0-0.1,0.1-0.2,0.1-0.3l0,0c0.1-0.5,0-1-0.4-1.4c-0.4-0.4-0.9-0.5-1.4-0.4l0,0l0,0
		c-0.1,0-0.1,0-0.2,0.1l-9.7,3.2c-0.3,0.1-0.7,0.2-0.9,0.5l-6.9,6.9L4,16.4l-0.8,0.8c-0.7,0.7-0.7,1.9,0,2.6L4.3,21L4,21.5l3.6,3.6
		l0.6-0.3L9.4,26c0.7,0.7,1.9,0.7,2.6,0l0.8-0.8l4.9-4.9l6.9-6.9C24.8,13.2,24.9,13,25,12.8z M11.2,21.5c-0.6,0.6-1.6,0.6-2.3,0
		l-1.3-1.3c-0.6-0.6-0.6-1.6,0-2.3l0.4-0.4l2.3-2.3c0.6-0.6,1.6-0.6,2.3,0l1.3,1.3c0.6,0.6,0.6,1.6,0,2.3L11.2,21.5z M16.1,13.1
		c-1.1-1.1-1.1-2.9,0-4.1C17.2,8,19,8,20.1,9.1c1.1,1.1,1.1,2.9,0,4.1C19,14.3,17.2,14.3,16.1,13.1z"/>
</g>
</svg>
