<?xml version="1.0" encoding="utf-8"?>
<!-- Generator: Adobe Illustrator 23.0.0, SVG Export Plug-In . SVG Version: 6.00 Build 0)  -->
<svg version="1.1" id="Calque_1" xmlns="http://www.w3.org/2000/svg" xmlns:xlink="http://www.w3.org/1999/xlink" x="0px" y="0px"
	 viewBox="0 0 50 50" style="enable-background:new 0 0 50 50;" xml:space="preserve">
<style type="text/css">
	.st0{fill:#E02A2F;}
	.st1{fill-rule:evenodd;clip-rule:evenodd;fill:#FFFFFF;}
</style>
<g>
	<circle class="st0" cx="25.1" cy="24.9" r="24.9"/>
	<path class="st1" d="M23.3,30.5c0,0.1,0,0.2-0.1,0.2c-1,4.1-1.2,5-2.2,6.9c-0.5,0.9-1.1,1.8-1.7,2.6c-0.1,0.1-0.1,0.2-0.3,0.2
		c-0.2,0-0.2-0.2-0.2-0.3c-0.2-1.2-0.3-2.5-0.2-3.8c0.1-1.6,0.3-2.2,2.4-11.1c0-0.1,0-0.2,0-0.4c-0.5-1.4-0.6-2.7-0.2-4.2
		c1-3,4.4-3.3,5-0.8c0.4,1.5-0.6,3.6-1.4,6.6c-0.6,2.5,2.3,4.2,4.8,2.4c2.3-1.7,3.2-5.6,3-8.5c-0.3-5.6-6.5-6.8-10.4-5
		c-4.5,2.1-5.5,7.6-3.5,10.2c0.3,0.3,0.5,0.5,0.4,0.8c-0.1,0.5-0.2,1-0.4,1.5c-0.1,0.4-0.4,0.5-0.8,0.4c-0.7-0.3-1.4-0.8-1.9-1.4
		c-1.7-2.1-2.2-6.3,0.1-9.9c2.5-4,7.2-5.6,11.5-5.1c5.1,0.6,8.3,4.1,9,8c0.3,1.8,0.1,6.3-2.5,9.4c-2.9,3.6-7.6,3.9-9.8,1.6
		C23.6,30.9,23.5,30.7,23.3,30.5z"/>
</g>
</svg>
